<svg width="48" height="48" viewBox="0 0 48 48" fill="none" xmlns="http://www.w3.org/2000/svg">
<rect width="48" height="48" rx="14" fill="url(#paint0_linear_11_387)"/>
<path d="M16.444 23.812C16.444 22.996 16.632 22.264 17.008 21.616C17.392 20.968 17.908 20.464 18.556 20.104C19.212 19.736 19.928 19.552 20.704 19.552C21.592 19.552 22.38 19.772 23.068 20.212C23.764 20.644 24.268 21.26 24.58 22.06H22.936C22.72 21.62 22.42 21.292 22.036 21.076C21.652 20.86 21.208 20.752 20.704 20.752C20.152 20.752 19.66 20.876 19.228 21.124C18.796 21.372 18.456 21.728 18.208 22.192C17.968 22.656 17.848 23.196 17.848 23.812C17.848 24.428 17.968 24.968 18.208 25.432C18.456 25.896 18.796 26.256 19.228 26.512C19.66 26.76 20.152 26.884 20.704 26.884C21.208 26.884 21.652 26.776 22.036 26.56C22.42 26.344 22.72 26.016 22.936 25.576H24.58C24.268 26.376 23.764 26.992 23.068 27.424C22.38 27.856 21.592 28.072 20.704 28.072C19.92 28.072 19.204 27.892 18.556 27.532C17.908 27.164 17.392 26.656 17.008 26.008C16.632 25.36 16.444 24.628 16.444 23.812ZM34.9653 19.66V28H33.5973V22.288L31.0533 28H30.1053L27.5493 22.288V28H26.1813V19.66H27.6573L30.5853 26.2L33.5013 19.66H34.9653Z" fill="white"/>
<defs>
<linearGradient id="paint0_linear_11_387" x1="48" y1="48" x2="-15.9741" y2="43.0496" gradientUnits="userSpaceOnUse">
<stop stop-color="#F08F33"/>
<stop offset="1" stop-color="#F8CFAB"/>
</linearGradient>
</defs>
</svg>
