<svg width="48" height="48" viewBox="0 0 48 48" fill="none" xmlns="http://www.w3.org/2000/svg">
<rect width="48" height="48" rx="14" fill="url(#paint0_linear_16_8)"/>
<path d="M21.496 28L18.268 24.268V28H16.9V19.66H18.268V23.464L21.508 19.66H23.224L19.6 23.836L23.284 28H21.496ZM30.5298 22.06C30.3138 21.644 30.0138 21.332 29.6298 21.124C29.2458 20.908 28.8018 20.8 28.2978 20.8C27.7458 20.8 27.2538 20.924 26.8218 21.172C26.3898 21.42 26.0498 21.772 25.8018 22.228C25.5618 22.684 25.4418 23.212 25.4418 23.812C25.4418 24.412 25.5618 24.944 25.8018 25.408C26.0498 25.864 26.3898 26.216 26.8218 26.464C27.2538 26.712 27.7458 26.836 28.2978 26.836C29.0418 26.836 29.6458 26.628 30.1098 26.212C30.5738 25.796 30.8578 25.232 30.9618 24.52H27.8298V23.428H32.4258V24.496C32.3378 25.144 32.1058 25.74 31.7298 26.284C31.3618 26.828 30.8778 27.264 30.2778 27.592C29.6858 27.912 29.0258 28.072 28.2978 28.072C27.5138 28.072 26.7978 27.892 26.1498 27.532C25.5018 27.164 24.9858 26.656 24.6018 26.008C24.2258 25.36 24.0378 24.628 24.0378 23.812C24.0378 22.996 24.2258 22.264 24.6018 21.616C24.9858 20.968 25.5018 20.464 26.1498 20.104C26.8058 19.736 27.5218 19.552 28.2978 19.552C29.1858 19.552 29.9738 19.772 30.6618 20.212C31.3578 20.644 31.8618 21.26 32.1738 22.06H30.5298Z" fill="white"/>
<defs>
<linearGradient id="paint0_linear_16_8" x1="48" y1="48" x2="-15.9741" y2="43.0496" gradientUnits="userSpaceOnUse">
<stop stop-color="#F08F33"/>
<stop offset="1" stop-color="#F8CFAB"/>
</linearGradient>
</defs>
</svg>
