<?xml version='1.0' encoding='utf-8'?>
<!DOCTYPE svg PUBLIC '-//W3C//DTD SVG 1.1//EN' 'http://www.w3.org/Graphics/SVG/1.1/DTD/svg11.dtd'>
<svg version="1.1" xmlns="http://www.w3.org/2000/svg" viewBox="0 0 512 512" xmlns:xlink="http://www.w3.org/1999/xlink" enable-background="new 0 0 512 512">
  <g>
    <g>
      <path d="m480.6,425.5h-343.9v-218.2h-40.8v238.7c0,11.3 9.1,20.4 20.4,20.4h44.6v14.2c0,11.3 9.1,20.4 20.4,20.4 11.3,0 20.4-9.1 20.4-20.4v-14.2h216.9v14.2c0,11.3 9.1,20.4 20.4,20.4 11.3,0 20.4-9.1 20.4-20.4v-14.2h21.1c11.3,0 20.4-9.1 20.4-20.4 0.1-11.3-9-20.5-20.3-20.5z"/>
      <path d="m222.4,118.1v-58.7c0-26.7-21.7-48.4-48.4-48.4h-114.6c-26.7,0-48.4,21.7-48.4,48.4v58.6c0,26.7 21.7,48.4 48.4,48.4h114.6c26.7,0.1 48.4-21.6 48.4-48.3z"/>
      <path d="m216,222.2v147c0,11.3 9.1,20.4 20.4,20.4h202.7c11.3,0 20.4-9.1 20.4-20.4v-147c0-11.3-9.1-20.4-20.4-20.4h-202.7c-11.3,2.84217e-14-20.4,9.2-20.4,20.4z"/>
    </g>
  </g>
</svg>
